<?xml version="1.0" encoding="UTF-8" standalone="no"?>
<svg width="39px" height="24px" viewBox="0 0 39 24" version="1.1" xmlns="http://www.w3.org/2000/svg" xmlns:xlink="http://www.w3.org/1999/xlink">
    <!-- Generator: Sketch 3.7.1 (28215) - http://www.bohemiancoding.com/sketch -->
    <title>Slice 1</title>
    <desc>Created with Sketch.</desc>
    <defs></defs>
    <g id="Page-1" stroke="none" stroke-width="1" fill="none" fill-rule="evenodd">
        <path d="M19.5,20.9021788 C17.4301422,22.8197891 14.6091625,24 11.5,24 C5.14872538,24 0,19.0751322 0,13 C0,6.92486775 5.14872538,2 11.5,2 C14.6091625,2 17.4301422,3.18021091 19.5,5.09782123 C21.5698578,3.18021091 24.3908375,2 27.5,2 C33.8512746,2 39,6.92486775 39,13 C39,19.0751322 33.8512746,24 27.5,24 C24.3908375,24 21.5698578,22.8197891 19.5,20.9021788 Z M19.5,20.9021788 C21.6583661,18.9025703 23,16.1011508 23,13 C23,9.89884925 21.6583661,7.09742973 19.5,5.09782123 C17.3416339,7.09742973 16,9.89884925 16,13 C16,16.1011508 17.3416339,18.9025703 19.5,20.9021788 Z" id="Combined-Shape" fill="#717171"></path>
    </g>
</svg>